<svg xmlns="http://www.w3.org/2000/svg" xmlns:xlink="http://www.w3.org/1999/xlink" xmlns:a="http://ns.adobe.com/AdobeSVGViewerExtensions/3.0/"><defs>



</defs><symbol id="svg-arrow-next" viewBox="0 0 6.1 10.1">
	<path d="M0.3,9.8C0.5,10,0.8,10.1,1,10.1c0.2,0,0.4-0.1,0.5-0.4l4.7-4.8L1.3,0.3C1-0.1,0.5,0,0.2,0.2c-0.3,0.3-0.3,0.8,0,1.1L4,4.9
	L0.4,8.7C0,9,0.1,9.5,0.3,9.8z"/>
</symbol><symbol id="svg-arrow-prev" viewBox="0 0 6.2 10.1">
	<path d="M5.8,8.7L2.2,4.9L6,1.3C6.3,1,6.3,0.5,6,0.2C5.7,0,5.2-0.1,4.9,0.3L0,4.9l4.7,4.8C4.8,10,5,10.1,5.2,10.1
	c0.2,0,0.5-0.1,0.7-0.3C6.1,9.5,6.2,9,5.8,8.7z"/>
</symbol><symbol id="svg-arrow" viewBox="0 0 6.4 10">
	<path d="M6.1,8.6l-4-3.4l3.4-4c0.3-0.3,0.2-0.8-0.1-1.1C5.1-0.1,4.6-0.1,4.3,0.3L0,5.4l5.2,4.3
	C5.3,9.9,5.5,10,5.7,10c0.2,0,0.4-0.1,0.6-0.3C6.5,9.4,6.5,8.9,6.1,8.6z"/>
</symbol><symbol id="svg-back" viewBox="0 0 26.1 16.5">
    <path d="M6.9,7.7l-2.1,2.8v-2c0-3.9,3.3-7,7.3-7h6.7V0h-6.7C7.2,0,3.3,3.8,3.3,8.5v2L1.2,7.7L0,8.6l3.4,4.6
        c0.1,0.2,0.4,0.3,0.6,0.3s0.5-0.1,0.6-0.3l3.4-4.6L6.9,7.7z"/>
    <path d="M26.1,7.9l-3.5-4.6c-0.3-0.4-0.9-0.4-1.2,0L18,7.9l1.2,0.9L21.3,6v2c0,3.9-3.3,7-7.3,7H7.3v1.5H14c4.8,0,8.8-3.8,8.8-8.5V6
        l2.1,2.8L26.1,7.9z"/>
</symbol><symbol id="svg-calendar" viewBox="0 0 23.2 20.5">
    <path d="M20.8,10.5c0.4,0,0.8-0.3,0.8-0.8v-5v-4c0-0.4-0.3-0.8-0.8-0.8h-20C0.3,0,0,0.3,0,0.8v4v15
        c0,0.4,0.3,0.8,0.8,0.8h10c0.4,0,0.8-0.3,0.8-0.8v-9.2H20.8z M1.5,10.5H5V14H1.5V10.5z M1.5,9V5.5H5V9H1.5z M6.5,5.5H10V9H6.5V5.5z
         M11.5,5.5H15V9h-3.5V5.5z M20,5.5V9h-3.5V5.5H20z M1.5,1.5H20V4H1.5V1.5z M1.5,15.5H5V19H1.5V15.5z M6.5,15.5H10V19H6.5V15.5z
         M10,14H6.5v-3.5H10V14z"/>
    <path d="M17.3,16.5c-0.1-0.2-0.3-0.3-0.6-0.4c0.3-0.2,0.5-0.4,0.7-0.6c0.1-0.2,0.2-0.5,0.2-0.9c0-0.6-0.2-1-0.5-1.3
        c-0.4-0.3-0.9-0.5-1.5-0.5c-0.5,0-0.9,0.1-1.3,0.3v0.9c0.4-0.2,0.8-0.3,1.2-0.3c0.4,0,0.6,0.1,0.9,0.3c0.2,0.2,0.3,0.4,0.3,0.7
        c0,0.3-0.1,0.6-0.3,0.8c-0.2,0.2-0.5,0.3-1,0.3h-0.1v0.9l0.1,0c0.4,0,0.7,0.1,0.8,0.2c0.1,0.1,0.2,0.1,0.3,0.3
        c0.2,0.2,0.2,0.4,0.2,0.7c0,0.3-0.1,0.6-0.3,0.8c-0.2,0.2-0.5,0.3-0.8,0.3c-0.5,0-1-0.2-1.5-0.5v1.1c0.5,0.3,1,0.4,1.5,0.4
        c0.6,0,1.1-0.2,1.5-0.6c0.4-0.4,0.6-0.9,0.6-1.5c0-0.2,0-0.5-0.1-0.7S17.4,16.7,17.3,16.5z"/>
    <path d="M22.6,13.8c-0.4-0.7-0.9-1-1.5-1c-0.7,0-1.2,0.3-1.6,1c-0.4,0.7-0.6,1.5-0.6,2.5c0,1,0.2,1.9,0.6,2.5
        s0.9,1,1.6,1c0.7,0,1.2-0.3,1.6-1c0.4-0.6,0.6-1.5,0.6-2.5C23.2,15.3,23,14.5,22.6,13.8z M21.9,18.2c-0.2,0.5-0.5,0.7-0.9,0.7
        s-0.7-0.2-0.9-0.7s-0.3-1.1-0.3-1.9c0-0.8,0.1-1.4,0.3-1.9c0.2-0.5,0.5-0.7,0.9-0.7h0c0.4,0,0.6,0.2,0.8,0.7
        c0.2,0.5,0.3,1.1,0.3,1.9C22.2,17.1,22.1,17.8,21.9,18.2z"/>
</symbol><symbol id="svg-cart" viewBox="0 0 17.5 24.5">
<path d="M13.5,7V4.8c0-2.6-2.1-4.8-4.8-4.8S4,2.1,4,4.8V7H0v12v1.5v4h17.5v-4V19V7H13.5z M5.5,4.8
    C5.5,3,7,1.5,8.8,1.5S12,3,12,4.8V7H5.5V4.8z M16,23H1.5v-2.5H16V23z M16,19H1.5V8.5H4v3.7h1.5V8.5H12v3.7h1.5V8.5H16V19z"/>
</symbol><symbol id="svg-check" viewBox="0 0 11 8.1">
	<polygon points="9.5,0 4.2,5.3 1.4,2.5 0,3.9 4.2,8.1 5.7,6.7 11,1.4 "/>
</symbol><symbol id="svg-fb" viewBox="0 0 8 18">

<desc>Created with Sketch.</desc>
<path d="M5.3,5.8V4c0-0.7,0.4-0.9,0.8-0.9H8V0L5.3,0C2.4,0,1.7,2.3,1.7,3.8v2.1H0V9h1.7v9h3.6V9h2.4L8,5.8H5.3z"/>
</symbol><symbol id="svg-filter" viewBox="0 0 21.5 17.5">
<path d="M13.5,4h-2V0H10v4H8v5.5h2v8h1.5v-8h2V4z M12,8H9.5V5.5H12V8z"/>
<path d="M5.5,9h-2V0H2v9H0v5.5h2v3h1.5v-3h2V9z M4,13H1.5v-2.5H4V13z"/>
<path d="M21.5,10h-2V0H18v10h-2v5.5h2v2h1.5v-2h2V10z M20,14h-2.5v-2.5H18h1.5H20V14z"/>
</symbol><symbol id="svg-gplus" viewBox="0 0 21.3 14">

<desc>Created with Sketch.</desc>
<g>
	<path d="M12.5,5.6c-1.5,0-2.9,0-4.4,0c-0.4,0-0.8,0-1.3,0c-0.1,0-0.2,0.1-0.2,0.2c0,0.9,0,1.8,0,2.7h3.6c0,0.2-0.1,0.3-0.1,0.4
		c-0.5,1.7-2.2,2.5-4,2.2c-2.2-0.4-3.6-2.5-3.2-4.9C2.9,5.9,3,5.6,3.2,5.3c0.7-1.7,2.6-2.7,4.4-2.3c0.6,0.1,1.2,0.5,1.7,0.9
		c0.6-0.7,1.3-1.4,2-2.1c0,0-0.1-0.1-0.2-0.1C9.4,0.3,7.6-0.2,5.6,0.1C2.7,0.6,0.6,3,0.1,5.8C-0.1,7,0,8.3,0.5,9.5
		c1.1,3,4,4.8,7,4.4c1.5-0.2,2.8-0.7,3.9-1.9c1.5-1.7,1.9-3.8,1.7-6.1C13,5.6,12.9,5.6,12.5,5.6z"/>
	<path d="M19.5,5.5h-0.4V5.4V5.1c0-0.5,0-1.1,0-1.6c0-0.1-0.1-0.2-0.1-0.3c-0.5,0-1,0-1.5,0v1.9v0.4h-2.3c0,0.2,0,0.3,0,0.4
		c0,0.4,0,0.8,0.1,1.2c0.4,0,0.8,0,1.2,0c0.3,0,0.7,0,1,0v2.2h1.6V7.1h2.2V5.9V5.5H19.5z"/>
</g>
</symbol><symbol id="svg-grid-full" viewBox="0 0 19 19">
	<rect width="19" height="19"/>
</symbol><symbol id="svg-grid-large" viewBox="0 0 19 19">
    <rect y="10" width="9" height="9"/>
    <rect x="10" y="10" width="9" height="9"/>
    <rect x="10" width="9" height="9"/>
    <rect width="9" height="9"/>
</symbol><symbol id="svg-grid-small" viewBox="0 0 19 19">
     <rect y="5" width="4" height="4"/>
<rect x="10" y="5" width="4" height="4"/>
<rect x="5" y="5" width="4" height="4"/>
<rect x="15" y="5" width="4" height="4"/>
<rect x="5" width="4" height="4"/>
<rect x="15" width="4" height="4"/>
<rect width="4" height="4"/>
<rect x="10" width="4" height="4"/>
<rect y="15" width="4" height="4"/>
<rect x="10" y="15" width="4" height="4"/>
<rect x="5" y="15" width="4" height="4"/>
<rect x="15" y="15" width="4" height="4"/>
<rect x="5" y="10" width="4" height="4"/>
<rect x="15" y="10" width="4" height="4"/>
<rect y="10" width="4" height="4"/>
<rect x="10" y="10" width="4" height="4"/>
</symbol><symbol id="svg-headphone" viewBox="0 0 28 30">
<path d="M27,11h-1.1C25.4,4.9,20.3,0,14,0C7.7,0,2.6,4.9,2.1,11H1c-0.6,0-1,0.4-1,1v9c0,0.6,0.4,1,1,1h4c0.6,0,1-0.4,1-1v-9
    c0-0.6-0.4-1-1-1H4.1C4.6,6,8.8,2,14,2c5.2,0,9.4,4,9.9,9H23c-0.6,0-1,0.4-1,1v9c0,0.6,0.4,1,1,1h0.9c-0.4,2.1-2.2,3.8-4.4,4
    c-0.5-0.6-1.2-1-2-1h-3c-1.4,0-2.5,1.1-2.5,2.5s1.1,2.5,2.5,2.5h3c1.2,0,2.3-0.9,2.5-2.1c3.1-0.4,5.5-2.9,6-5.9H27c0.6,0,1-0.4,1-1
    v-9C28,11.4,27.6,11,27,11z M4,20H2v-7h2V20z M17.5,28h-3c-0.3,0-0.5-0.2-0.5-0.5s0.2-0.5,0.5-0.5h3c0.3,0,0.5,0.2,0.5,0.5
    S17.8,28,17.5,28z M26,20h-2v-7h2V20z"/>
</symbol><symbol id="svg-hearth" viewBox="0 0 21.5 19.8">
<path d="M15.5,0c-1.9,0-3.6,0.8-4.8,2.1C9.6,0.8,7.9,0,6,0C3,0,0,2,0,5.8C0,9.5,3.6,13,8.2,17.4
    c0.6,0.6,1.3,1.3,2,1.9l0.5,0.5l0.5-0.5c0.7-0.7,1.3-1.3,2-1.9c4.6-4.4,8.2-7.9,8.2-11.6C21.5,2,18.5,0,15.5,0z M12.2,16.3
    c-0.5,0.5-1,0.9-1.5,1.4c-0.5-0.5-1-1-1.5-1.4C4.9,12.1,1.5,8.8,1.5,5.8C1.5,3,3.8,1.5,6,1.5c1.7,0,3.3,0.9,4.1,2.3l0.6,1.1l0.6-1.1
    c0.8-1.4,2.4-2.3,4.1-2.3c2.2,0,4.5,1.3,4.5,4.3C20,8.8,16.6,12.1,12.2,16.3z"/>
</symbol><symbol id="svg-insta" viewBox="0 0 20 20">

<desc>Created with Sketch.</desc>
<g>
	<path d="M19.9,5.9c0-1.1-0.2-1.8-0.5-2.4c-0.3-0.7-0.6-1.2-1.2-1.8s-1.1-0.9-1.8-1.2c-0.6-0.2-1.4-0.4-2.4-0.5C13.1,0,12.7,0,10,0
		C7.3,0,6.9,0,5.9,0.1c-1.1,0-1.8,0.2-2.4,0.5C2.8,0.8,2.2,1.1,1.7,1.7C1.1,2.2,0.8,2.8,0.5,3.4C0.3,4.1,0.1,4.8,0.1,5.9
		C0,6.9,0,7.3,0,10c0,2.7,0,3.1,0.1,4.1c0,1.1,0.2,1.8,0.5,2.4c0.3,0.7,0.6,1.2,1.2,1.8c0.6,0.6,1.1,0.9,1.8,1.2
		c0.6,0.2,1.4,0.4,2.4,0.5C6.9,20,7.3,20,10,20c2.7,0,3.1,0,4.1-0.1c1.1,0,1.8-0.2,2.4-0.5c0.7-0.3,1.2-0.6,1.8-1.2
		c0.6-0.6,0.9-1.1,1.2-1.8c0.2-0.6,0.4-1.4,0.5-2.4c0-1.1,0.1-1.4,0.1-4.1C20,7.3,20,6.9,19.9,5.9z M17.9,13.9c0,1-0.2,1.5-0.3,1.8
		c-0.2,0.5-0.4,0.8-0.7,1.1c-0.3,0.3-0.7,0.6-1.1,0.7c-0.3,0.1-0.9,0.3-1.8,0.3c-1,0-1.3,0.1-3.9,0.1c-2.6,0-2.9,0-3.9-0.1
		c-1,0-1.5-0.2-1.8-0.3c-0.5-0.2-0.8-0.4-1.1-0.7c-0.3-0.3-0.6-0.7-0.7-1.1c-0.1-0.3-0.3-0.9-0.3-1.8C2,12.9,2,12.6,2,10
		c0-2.6,0-2.9,0.1-3.9c0-1,0.2-1.5,0.3-1.8c0.2-0.5,0.4-0.8,0.7-1.1c0.3-0.3,0.7-0.6,1.1-0.7c0.3-0.1,0.9-0.3,1.8-0.3
		C7.1,2,7.4,2,10,2c2.6,0,2.9,0,3.9,0.1c1,0,1.5,0.2,1.8,0.3c0.5,0.2,0.8,0.4,1.1,0.7c0.3,0.3,0.6,0.7,0.7,1.1
		c0.1,0.3,0.3,0.9,0.3,1.8c0,1,0.1,1.3,0.1,3.9C18,12.6,18,12.9,17.9,13.9z"/>
	<path d="M15.2,3.6c-0.6,0-1.2,0.5-1.2,1.2C14,5.4,14.6,6,15.2,6s1.2-0.5,1.2-1.2C16.4,4.1,15.9,3.6,15.2,3.6z"/>
	<path d="M10,5c-2.8,0-5,2.2-5,5c0,2.8,2.2,5,5,5s5-2.2,5-5C15,7.2,12.8,5,10,5z M10,13c-1.7,0-3-1.3-3-3s1.3-3,3-3s3,1.3,3,3
		S11.7,13,10,13z"/>
</g>
</symbol><symbol id="svg-lock" viewBox="0 0 13.5 20.5">
    <path d="M11.5,7V4c0-2.2-2.1-4-4.8-4S2,1.8,2,4v3H0v13.5h13.5V7H11.5z M3.5,4c0-1.4,1.5-2.5,3.2-2.5S10,2.6,10,4v3H3.5V4z M12,19
        H1.5V8.5H2h1.5H10h1.5H12V19z"/>
    <rect x="6" y="11.8" width="1.5" height="5"/>
</symbol><symbol id="svg-loupe" viewBox="0 0 19.3 20.3">
<path d="M19.3,19.2L14.1,14c1.5-1.5,2.4-3.5,2.4-5.8c0-4.5-3.7-8.2-8.2-8.2S0,3.7,0,8.2s3.7,8.2,8.2,8.2
    c1.7,0,3.4-0.6,4.7-1.5l5.3,5.3L19.3,19.2z M1.5,8.2c0-3.7,3-6.8,6.8-6.8c3.7,0,6.8,3,6.8,6.8C15,12,12,15,8.2,15
    C4.5,15,1.5,12,1.5,8.2z"/>
</symbol><symbol id="svg-refund" viewBox="0 0 19.5 22.5">
    <path d="M18.6,7.4c0.5-0.7,0.9-1.4,0.9-2.2c0-2.9-4.3-5.2-9.8-5.2C4.3,0,0,2.3,0,5.2C0,6,0.3,6.8,0.9,7.4C0.3,8.1,0,8.8,0,9.5
    c0,0.7,0.3,1.4,0.8,2c-0.5,0.6-0.8,1.3-0.8,2c0,0.7,0.3,1.4,0.8,2c-0.5,0.6-0.8,1.3-0.8,2c0,2.8,4.3,5,9.8,5c5.5,0,9.8-2.2,9.8-5
    c0-0.7-0.3-1.4-0.8-2c0.5-0.6,0.8-1.3,0.8-2c0-0.7-0.3-1.4-0.8-2c0.5-0.6,0.8-1.3,0.8-2C19.5,8.8,19.2,8.1,18.6,7.4z M18,13.5
    c0,1.6-3.4,3.5-8.2,3.5c-4.9,0-8.2-1.8-8.2-3.5c0-0.3,0.1-0.7,0.4-1c1.8,1.2,4.6,2,7.8,2c3.3,0,6.1-0.8,7.8-2
    C17.9,12.8,18,13.2,18,13.5z M2,8.4c1.8,1.3,4.6,2.1,7.8,2.1c3.2,0,6-0.8,7.8-2.1C17.8,8.8,18,9.2,18,9.5c0,1.6-3.4,3.5-8.2,3.5
    c-4.9,0-8.2-1.8-8.2-3.5C1.5,9.2,1.7,8.8,2,8.4z M9.8,1.5c4.9,0,8.2,2,8.2,3.8S14.6,9,9.8,9C4.9,9,1.5,7,1.5,5.2S4.9,1.5,9.8,1.5z
     M9.8,21c-4.9,0-8.2-1.8-8.2-3.5c0-0.3,0.1-0.7,0.4-1c1.8,1.2,4.6,2,7.8,2c3.3,0,6.1-0.8,7.8-2c0.3,0.3,0.4,0.7,0.4,1
    C18,19.2,14.6,21,9.8,21z"/>
</symbol><symbol id="svg-truck" viewBox="0 0 29.5 15.5">
    <path d="M29.5,6h-3.3l-3-6H8v4H2v1.5h6V11H3v1.5h5v1h3.1c0.3,1.2,1.4,2,2.6,2s2.3-0.8,2.6-2h4.7c0.3,1.2,1.4,2,2.6,2s2.3-0.8,2.6-2
        h3.1V6z M13.8,14c-0.7,0-1.2-0.6-1.2-1.2s0.6-1.2,1.2-1.2s1.2,0.6,1.2,1.2S14.4,14,13.8,14z M23.8,14c-0.7,0-1.2-0.6-1.2-1.2
        s0.6-1.2,1.2-1.2s1.2,0.6,1.2,1.2S24.4,14,23.8,14z M28,12h-1.6c-0.3-1.2-1.4-2-2.6-2s-2.3,0.8-2.6,2h-4.7c-0.3-1.2-1.4-2-2.6-2
        s-2.3,0.8-2.6,2H9.5v-1V5.5h4V4h-4V1.5h12.8l3,6H28V12z"/>
    <rect y="7" width="6.5" height="1.5"/>
</symbol><symbol id="svg-tw" viewBox="0 0 16.9 13.7">

<desc>Created with Sketch.</desc>
<path d="M14.9,2.2c0.7-0.4,1.3-1.1,1.5-1.9C15.8,0.7,15,1,14.2,1.1C13.6,0.4,12.7,0,11.7,0C9.8,0,8.2,1.6,8.2,3.5
	c0,0.3,0,0.5,0.1,0.8C5.5,4.1,2.9,2.7,1.2,0.6C0.9,1.1,0.7,1.7,0.7,2.4c0,1.2,0.6,2.3,1.5,2.9c-0.5,0-1.1-0.2-1.6-0.5v0.1
	c0,1.7,1.2,3.1,2.8,3.4C3.2,8.4,2.9,8.4,2.5,8.4c-0.2,0-0.4,0-0.6-0.1c0.4,1.4,1.7,2.4,3.2,2.4c-1.2,0.9-2.7,1.5-4.3,1.5
	c-0.3,0-0.5,0-0.8-0.1c1.6,1,3.4,1.6,5.3,1.6c6.4,0,9.8-5.3,9.8-9.9V3.4c0.7-0.5,1.3-1.1,1.7-1.8C16.3,1.9,15.6,2.1,14.9,2.2z"/>
</symbol><symbol id="svg-user" viewBox="0 0 17.9 23.7">
    <polygon points="14.5,13 3.4,13 0,23.2 1.4,23.7 4.5,14.5 13.4,14.5 16.5,23.7 17.9,23.2   "/>
    <path d="M8.9,11.5c3.2,0,5.8-2.6,5.8-5.8S12.1,0,8.9,0C5.8,0,3.2,2.6,3.2,5.8S5.8,11.5,8.9,11.5z M8.9,1.5
        c2.3,0,4.2,1.9,4.2,4.2S11.3,10,8.9,10c-2.3,0-4.2-1.9-4.2-4.2S6.6,1.5,8.9,1.5z"/>
</symbol><symbol id="svg-youtube" viewBox="0 0 20 14">
	 <path d="M19.8,3c0,0-0.2-1.4-0.8-2c-0.8-0.8-1.6-0.8-2-0.8C14.2,0,10,0,10,0h0c0,0-4.2,0-7,0.2c-0.4,0-1.2,0-2,0.8
	C0.4,1.6,0.2,3,0.2,3S0,4.6,0,6.2v0.2v1.3C0,9.4,0.2,11,0.2,11s0.2,1.4,0.8,2c0.8,0.8,1.8,0.8,2.2,0.9C4.8,14,10,14,10,14
	s4.2,0,7-0.2c0.4,0,1.2,0,2-0.8c0.6-0.6,0.8-2,0.8-2S20,9.4,20,7.8V6.5V6.2C20,4.6,19.8,3,19.8,3z M8,10l0-4.6V4l2.3,1.4L13,7L8,10z
	"/>
</symbol></svg>